#!OML:ASF F:\VICON\USERDATA\INSTALL\Justin_Nancy\Justin_Nancy.ASF
:FULLY-SPECIFIED
:DEGREES
17
root -10.4405 17.6547 -23.8697 2.34024 -3.98785 -2.25779
lowerback 3.18679 2.71217 3.65084
upperback 1.92271 3.70614 0.511326
thorax 0.389012 1.88187 -1.61261
lowerneck -19.4097 -4.88624 -7.9259
upperneck 10.8468 -5.76141 8.05445
head 6.94764 -2.40145 3.24104
rclavicle 1.799e-014 9.93923e-016
rhumerus -33.8125 25.392 -98.5136
rradius 123.971
rwrist -4.79619
rhand -13.6609 16.9084
rfingers 7.12502
rthumb 12.456 -12.7004
lclavicle 1.799e-014 9.93923e-016
lhumerus -52.2829 -8.70376 92.7979
lradius 103.555
lwrist 21.5482
lhand -11.1223 11.8769
lfingers 7.12502
lthumb 14.9026 41.3209
rfemur 11.7049 2.78917 27.9718
rtibia 29.3119
rfoot 9.02098 0.510552
rtoes -9.89437
lfemur -35.7381 0.410656 -19.2561
ltibia 49.1115
lfoot -6.0353 2.01578
ltoes -21.9042
18
root -10.4331 17.7146 -23.4271 2.39163 -3.77688 -2.17917
lowerback 2.87684 2.8112 3.52608
upperback 1.73713 3.82659 0.518222
thorax 0.369061 1.93849 -1.52778
lowerneck -19.1567 -5.07892 -8.08027
upperneck 10.777 -5.99945 8.07157
head 6.9083 -2.52705 3.24431
rclavicle 6.90777e-015 -1.72943e-014
rhumerus -34.4066 25.4708 -98.5141
rradius 123.897
rwrist -6.02703
rhand -13.0864 20.359
rfingers 7.12502
rthumb 13.0099 -9.21535
lclavicle 6.90777e-015 -1.72943e-014
lhumerus -53.4584 -8.19105 92.5569
lradius 103.679
lwrist 20.9999
lhand -11.7529 10.9775
lfingers 7.12502
lthumb 14.2951 40.4654
rfemur 12.4893 3.42109 27.6097
rtibia 29.1353
rfoot 12.2903 2.00503
rtoes -6.26824
lfemur -35.2656 -0.566626 -19.6699
ltibia 44.8739
lfoot -5.28382 2.49903
ltoes -22.8588
19
root -10.4339 17.7741 -22.9829 2.50554 -3.86095 -2.49327
lowerback 2.56983 2.99634 3.63082
upperback 1.49641 4.06856 0.654305
thorax 0.303457 2.0555 -1.44131
lowerneck -18.9172 -5.17435 -8.27133
upperneck 10.9292 -6.12783 8.20075
head 6.93974 -2.59032 3.30499
rclavicle 2.8302e-014 1.92821e-014
rhumerus -35.503 26.0455 -98.9784
rradius 124.302
rwrist -6.55418
rhand -13.5851 19.4704
rfingers 7.12502
rthumb 12.5292 -10.1339
lclavicle 2.8302e-014 1.92821e-014
lhumerus -54.7598 -7.74259 92.2516
lradius 103.936
lwrist 20.2293
lhand -11.7635 11.1597
lfingers 7.12502
lthumb 14.2849 40.6484
rfemur 12.8747 4.57434 27.8528
rtibia 29.502
rfoot 15.6892 3.39951
rtoes -1.20274
lfemur -34.6402 -1.19073 -19.5502
ltibia 40.5918
lfoot -4.30289 2.73788
ltoes -21.9978
20
root -10.436 17.8109 -22.545 2.5837 -3.86721 -2.82243
lowerback 2.43774 3.2604 3.74959
upperback 1.0933 4.42815 0.686714
thorax -0.0116602 2.2255 -1.48615
lowerneck -18.3075 -5.29337 -8.04254
upperneck 11.1859 -6.40114 8.13611
head 6.93583 -2.72992 3.22094
rclavicle -1.64246e-014 4.87022e-015
rhumerus -36.7549 26.0011 -99.5038
rradius 124.924
rwrist -5.04045
rhand -13.6559 16.3758
rfingers 7.12502
rthumb 12.4608 -13.2327
lclavicle -1.64246e-014 4.87022e-015
lhumerus -56.4612 -7.70361 91.8229
lradius 104.453
lwrist 19.406
lhand -11.5708 11.6044
lfingers 7.12502
lthumb 14.4706 41.0798
rfemur 13.0771 5.66536 28.196
rtibia 30.5063
rfoot 18.3296 4.82645
rtoes 2.51815
lfemur -33.9331 -1.56737 -19.4748
ltibia 36.3263
lfoot -2.99544 2.76345
ltoes -20.6699
21
root -10.4329 17.8205 -22.1137 2.57224 -3.8485 -3.14176
lowerback 2.42052 3.62637 3.93688
upperback 0.492174 4.9362 0.603971
thorax -0.56943 2.46204 -1.70569
lowerneck -16.8989 -5.47049 -7.5223
upperneck 11.2413 -6.84811 7.96536
head 6.73191 -2.96969 3.04783
rclavicle 5.27773e-014 -3.97569e-016
rhumerus -38.0927 25.0927 -99.8821
rradius 124.853
rwrist -5.56575
rhand -13.7672 19.0953
rfingers 7.12502
rthumb 12.3536 -10.5197
lclavicle 5.27773e-014 -3.97569e-016
lhumerus -58.5713 -8.1189 91.3574
lradius 105.054
lwrist 18.4126
lhand -11.0957 11.4508
lfingers 7.12502
lthumb 14.9283 40.8929
rfemur 13.2171 6.46448 28.425
rtibia 32.0584
rfoot 19.4412 6.50521
rtoes 4.99444
lfemur -33.2088 -1.76262 -19.4863
ltibia 32.291
lfoot -1.41039 2.88509
ltoes -17.8297
22
root -10.4307 17.8201 -21.6874 2.46633 -3.86417 -3.39564
lowerback 2.48247 3.47784 3.8053
upperback 0.667216 4.736 1.01005
thorax -0.480922 2.36539 -1.21296
lowerneck -18.5942 -5.4646 -8.43038
upperneck 12.2758 -6.6045 8.27309
head 7.37461 -2.81866 3.30172
rclavicle 4.28629e-015 -2.52457e-014
rhumerus -37.3974 25.7088 -98.7543
rradius 124.195
rwrist -5.44571
rhand -12.1341 22.9691
rfingers 7.12502
rthumb 13.9278 -6.54445
lclavicle 4.28629e-015 -2.52457e-014
lhumerus -59.1095 -6.56056 90.8639
lradius 105.563
lwrist 17.1467
lhand -10.7708 11.4612
lfingers 7.12502
lthumb 15.2413 40.8797
rfemur 13.1205 7.1672 28.6006
rtibia 34.0958
rfoot 19.3273 8.15182
rtoes 6.60723
lfemur -32.3764 -1.77795 -19.6154
ltibia 28.5774
lfoot 0.282716 3.15782
ltoes -16.2538
23
root -10.4307 17.8158 -21.2611 2.21706 -3.99012 -3.78092
lowerback 2.76839 3.46503 3.79872
upperback 0.676188 4.73547 1.32255
thorax -0.658569 2.36178 -0.910466
lowerneck -19.2686 -5.36414 -8.95572
upperneck 12.8075 -6.38022 8.69035
head 7.67654 -2.6792 3.55032
rclavicle -3.3048e-014 -7.55382e-015
rhumerus -38.019 26.9184 -99.2183
rradius 124.382
rwrist -7.53984
rhand -13.3293 22.6311
rfingers 7.12502
rthumb 12.7758 -6.95798
lclavicle -3.3048e-014 -7.55382e-015
lhumerus -60.0949 -5.54871 90.2339
lradius 106.203
lwrist 16.0888
lhand -11.3851 11.4752
lfingers 7.12502
lthumb 14.6495 40.9377
rfemur 12.8611 7.75398 28.9185
rtibia 36.5032
rfoot 18.6688 9.37217
rtoes 8.69226
lfemur -31.3763 -1.58883 -19.6386
ltibia 25.3093
lfoot 1.87069 3.63172
ltoes -15.5288
24
root -10.4353 17.8017 -20.8381 2.10036 -4.51432 -4.39163
lowerback 3.06724 3.6647 3.93624
upperback 0.465846 5.03237 1.62085
thorax -1.04417 2.50063 -0.72037
lowerneck -19.3071 -5.27745 -9.09457
upperneck 13.1097 -6.26489 8.82277
head 7.78169 -2.61647 3.63487
rclavicle -4.73356e-015 -1.92821e-014
rhumerus -38.1808 26.2025 -98.6363
rradius 123.903
rwrist -5.46714
rhand -11.8374 25.9086
rfingers 7.12502
rthumb 14.2137 -3.58507
lclavicle -4.73356e-015 -1.92821e-014
lhumerus -61.4163 -4.84972 89.5087
lradius 106.911
lwrist 15.1907
lhand -11.6404 11.846
lfingers 7.12502
lthumb 14.4036 41.3262
rfemur 12.2599 8.40531 29.3575
rtibia 39.1321
rfoot 17.9197 10.1074
rtoes 10.96
lfemur -30.5894 -1.1171 -19.3642
ltibia 22.5345
lfoot 3.53996 4.58387
ltoes -14.7357
25
root -10.4387 17.7696 -20.4242 1.93319 -4.90414 -4.72539
lowerback 3.4687 3.82098 3.81385
upperback 0.164535 5.2738 1.84522
thorax -1.6012 2.60937 -0.476403
lowerneck -19.4899 -5.07184 -9.69751
upperneck 14.337 -6.0281 9.57778
head 8.24541 -2.45328 4.03484
rclavicle 8.49432e-014 1.68967e-014
rhumerus -39.4576 27.756 -99.9834
rradius 124.713
rwrist -7.83209
rhand -14.182 20.3324
rfingers 7.12502
rthumb 11.9536 -9.30633
lclavicle 8.49432e-014 1.68967e-014
lhumerus -62.8367 -4.23802 88.7442
lradius 107.562
lwrist 14.5332
lhand -11.2931 11.8335
lfingers 7.12502
lthumb 14.7381 41.2895
rfemur 12.0474 8.64084 29.3732
rtibia 41.9199
rfoot 15.8794 10.4801
rtoes 8.64161
lfemur -29.9132 -0.483096 -19.5226
ltibia 20.2617
lfoot 5.42992 5.50714
ltoes -14.0839
26
root -10.4402 17.7424 -20.0122 1.61181 -4.77644 -4.98456
lowerback 4.00703 3.78223 3.65553
upperback -0.0930106 5.26078 2.07944
thorax -2.20457 2.59249 -0.202334
lowerneck -19.0192 -5.07475 -9.86494
upperneck 14.415 -6.04246 9.61767
head 8.19832 -2.47808 4.0792
rclavicle -1.75924e-014 -2.10712e-014
rhumerus -40.6377 27.3578 -100.208
rradius 124.792
rwrist -7.67031
rhand -12.9079 21.7117
rfingers 7.12502
rthumb 13.182 -7.85157
lclavicle -1.75924e-014 -2.10712e-014
lhumerus -64.1017 -3.68699 87.9482
lradius 108.126
lwrist 14.0684
lhand -11.0766 11.5324
lfingers 7.12502
lthumb 14.9467 40.9731
rfemur 11.6926 8.26697 29.2724
rtibia 44.7774
rfoot 14.0355 9.59637
rtoes 5.56536
lfemur -29.1772 0.580997 -20.1325
ltibia 18.529
lfoot 7.71748 5.6788
ltoes -13.0365
27
root -10.4414 17.7124 -19.607 1.32462 -4.50083 -5.17076
lowerback 4.54027 3.65757 3.41384
upperback -0.303207 5.12721 2.32102
thorax -2.76742 2.51963 0.136537
lowerneck -18.7756 -5.19349 -9.92951
upperneck 14.3696 -6.15787 9.36228
head 8.14571 -2.56796 3.98759
rclavicle 4.99446e-015 -2.94201e-014
rhumerus -41.5113 27.2274 -100.397
rradius 124.8
rwrist -5.09301
rhand -12.2723 19.0585
rfingers 7.12502
rthumb 13.7946 -10.4642
lclavicle 4.99446e-015 -2.94201e-014
lhumerus -65.2186 -3.05924 87.0645
lradius 108.737
lwrist 13.8557
lhand -11.3907 11.6613
lfingers 7.12502
lthumb 14.6441 41.1242
rfemur 11.0905 7.67976 29.0632
rtibia 47.7179
rfoot 13.082 8.00254
rtoes 2.9843
lfemur -28.5502 1.60335 -20.8749
ltibia 17.2731
lfoot 10.1129 6.03039
ltoes -11.1297
28
root -10.4424 17.6585 -19.2082 0.943014 -4.36767 -5.4062
lowerback 5.13855 3.58527 3.23587
upperback -0.388882 5.06478 2.58714
thorax -3.2328 2.48553 0.465352
lowerneck -18.5899 -5.20344 -10.0241
upperneck 14.2453 -6.11984 9.1817
head 8.06457 -2.57808 3.94673
rclavicle 3.87506e-014 2.04748e-014
rhumerus -42.3111 27.6149 -100.844
rradius 124.995
rwrist -4.17851
rhand -12.9877 15.7917
rfingers 7.12502
rthumb 13.1051 -13.7765
lclavicle 3.87506e-014 2.04748e-014
lhumerus -66.0699 -2.49863 86.1814
lradius 109.313
lwrist 13.874
lhand -11.4196 11.7174
lfingers 7.12502
lthumb 14.6163 41.1823
rfemur 10.4457 6.90218 28.7128
rtibia 50.668
rfoot 12.5991 6.08406
rtoes 0.702975
lfemur -27.8659 2.34728 -21.4201
ltibia 16.5207
lfoot 12.2101 6.94811
ltoes -9.05618
29
root -10.4418 17.5936 -18.8025 0.371031 -4.51006 -5.62531
lowerback 5.87186 3.53793 3.03917
upperback -0.398514 5.03851 2.88429
thorax -3.69935 2.47162 0.83015
lowerneck -18.3509 -5.14534 -10.2361
upperneck 14.3217 -5.97669 9.00412
head 8.03417 -2.54545 3.94321
rclavicle -7.82715e-016 6.75868e-015
rhumerus -43.0102 27.97 -101.144
rradius 124.89
rwrist -3.70543
rhand -13.4416 14.3841
rfingers 7.12502
rthumb 12.6675 -15.2117
lclavicle -7.82715e-016 6.75868e-015
lhumerus -66.75 -1.8213 85.2532
lradius 109.744
lwrist 14.186
lhand -11.2583 11.4868
lfingers 7.12502
lthumb 14.7717 40.9404
rfemur 9.74264 6.08765 28.1288
rtibia 53.6389
rfoot 11.9636 4.00162
rtoes 0.716914
lfemur -27.0902 3.10417 -21.8626
ltibia 16.5501
lfoot 13.6876 7.99666
ltoes -2.59403
30
root -10.4368 17.5308 -18.3853 -0.162736 -4.60003 -5.65976
lowerback 6.34278 3.48522 2.72716
upperback -0.346128 4.97501 3.07539
thorax -3.95375 2.44515 1.17515
lowerneck -18.5011 -5.09096 -10.3394
upperneck 14.7309 -5.84894 8.82074
head 8.18022 -2.50494 3.91741
rclavicle 2.54693e-016 -3.97569e-015
rhumerus -42.6777 26.9516 -100.162
rradius 123.848
rwrist -2.17121
rhand -11.9223 19.2485
rfingers 7.12502
rthumb 14.1319 -10.2509
lclavicle 2.54693e-016 -3.97569e-015
lhumerus -67.0795 -1.25178 84.2626
lradius 109.942
lwrist 14.4285
lhand -11.6296 11.3764
lfingers 7.12502
lthumb 14.414 40.8559
rfemur 8.98107 5.10649 27.1972
rtibia 56.5332
rfoot 11.4969 2.05608
rtoes 2.93966
lfemur -26.7323 4.43676 -22.7491
ltibia 17.599
lfoot 14.2865 7.00035
ltoes 9.16142
31
root -10.4254 17.4619 -17.9634 -0.58602 -4.55267 -5.6888
lowerback 6.60703 3.43109 2.56249
upperback -0.299087 4.90637 3.19984
thorax -4.07812 2.41454 1.38561
lowerneck -18.7035 -5.10202 -10.3645
upperneck 15.043 -5.8096 8.58847
head 8.3088 -2.50608 3.84828
rclavicle 2.72646e-014 -1.86858e-014
rhumerus -42.7385 26.4517 -99.973
rradius 123.175
rwrist -2.97235
rhand -11.5632 22.2217
rfingers 7.12502
rthumb 14.4779 -7.25324
lclavicle 2.72646e-014 -1.86858e-014
lhumerus -67.2288 -0.942594 83.2492
lradius 110.044
lwrist 14.8295
lhand -11.8841 11.0798
lfingers 7.12502
lthumb 14.1687 40.5766
rfemur 8.17595 3.88607 26.0776
rtibia 59.3124
rfoot 11.0102 -0.106055
rtoes 5.96105
lfemur -26.9255 5.92722 -23.7755
ltibia 19.754
lfoot 13.0741 4.25306
ltoes 18.2632
